<svg xmlns="http://www.w3.org/2000/svg" width="210.46" height="37.502" viewBox="0 0 210.46 37.502">
  <path id="Path_3" data-name="Path 3" d="M28.22-28.526,26.384-27.1a20.463,20.463,0,0,1,3.6,4.59l2.006-1.462A18.272,18.272,0,0,0,28.22-28.526Zm-3.4,2.278L22.95-24.82a20.212,20.212,0,0,1,3.638,4.59l1.972-1.394A17.9,17.9,0,0,0,24.82-26.248ZM7.412-25.6l-1.6,3.332a38.957,38.957,0,0,1,10.438,4.148l2.074-2.958A39.178,39.178,0,0,0,7.412-25.6Zm20.23,6.29a29.656,29.656,0,0,1-8.6,11.118,34.733,34.733,0,0,1-14.11,6.8L6.664,2.074A35.768,35.768,0,0,0,21.93-5.542a34.967,34.967,0,0,0,9.248-12.41ZM4.42-18.122,2.856-14.79a42.073,42.073,0,0,1,10.472,4.182L15.3-13.8A41.934,41.934,0,0,0,4.42-18.122Zm49.232,1.734a7.391,7.391,0,0,1-.9,3.57,6.618,6.618,0,0,1-2.822,2.686,10.265,10.265,0,0,1-4.845,1.02H41.106V0h-4.76V-23.732h8.738a10.559,10.559,0,0,1,4.692.952,6.632,6.632,0,0,1,2.907,2.618A7.367,7.367,0,0,1,53.652-16.388ZM44.88-12.954a4.125,4.125,0,0,0,2.924-.9,3.32,3.32,0,0,0,.952-2.533q0-3.468-3.876-3.468H41.106v6.9ZM74.8-18.836V0H70.006V-2.38a6.284,6.284,0,0,1-2.4,1.921,7.441,7.441,0,0,1-3.213.7A7.981,7.981,0,0,1,60.486-.7a6.591,6.591,0,0,1-2.669-2.754,9.1,9.1,0,0,1-.969-4.335v-11.05h4.76v10.37A4.884,4.884,0,0,0,62.73-5.015a3.974,3.974,0,0,0,3.06,1.207,4.017,4.017,0,0,0,3.094-1.207,4.884,4.884,0,0,0,1.122-3.451v-10.37Zm9.452,2.924a6.692,6.692,0,0,1,2.4-2.346,6.667,6.667,0,0,1,3.383-.85v5H88.774a4.821,4.821,0,0,0-3.383,1.054,4.859,4.859,0,0,0-1.139,3.672V0h-4.76V-18.836h4.76ZM101.592.306A9.921,9.921,0,0,1,96.7-.9a8.691,8.691,0,0,1-3.417-3.417,10.239,10.239,0,0,1-1.241-5.1,10.021,10.021,0,0,1,1.275-5.1A8.86,8.86,0,0,1,96.8-17.935a10.115,10.115,0,0,1,4.93-1.207,10.115,10.115,0,0,1,4.93,1.207,8.86,8.86,0,0,1,3.485,3.417,10.021,10.021,0,0,1,1.275,5.1,9.817,9.817,0,0,1-1.309,5.1A9.065,9.065,0,0,1,106.573-.9,10.282,10.282,0,0,1,101.592.306Zm0-4.148a4.952,4.952,0,0,0,2.431-.629,4.571,4.571,0,0,0,1.819-1.887,6.359,6.359,0,0,0,.68-3.06,5.67,5.67,0,0,0-1.411-4.131,4.638,4.638,0,0,0-3.451-1.445,4.529,4.529,0,0,0-3.417,1.445,5.756,5.756,0,0,0-1.377,4.131,5.847,5.847,0,0,0,1.343,4.131A4.422,4.422,0,0,0,101.592-3.842ZM117.334-21.08a2.945,2.945,0,0,1-2.125-.8,2.644,2.644,0,0,1-.833-1.989,2.644,2.644,0,0,1,.833-1.989,2.945,2.945,0,0,1,2.125-.8,2.842,2.842,0,0,1,2.074.8,2.671,2.671,0,0,1,.816,1.989,2.671,2.671,0,0,1-.816,1.989A2.842,2.842,0,0,1,117.334-21.08ZM119.68,3.094q0,3.128-1.547,4.505A6.461,6.461,0,0,1,113.7,8.976h-2.108V4.93h1.36a2.186,2.186,0,0,0,1.53-.425,1.843,1.843,0,0,0,.442-1.377V-18.836h4.76Zm21.862-13.328q0,1.224-.068,1.87h-15.4a7.472,7.472,0,0,0,1.02,3.6A6.005,6.005,0,0,0,129.506-2.5a7.064,7.064,0,0,0,3.264.765,6.555,6.555,0,0,0,3.893-1.122,5.268,5.268,0,0,0,2.091-3.026h2.516a7.861,7.861,0,0,1-2.907,4.437A8.889,8.889,0,0,1,132.77.272,9.363,9.363,0,0,1,128.078-.9a8.283,8.283,0,0,1-3.247-3.332,10.416,10.416,0,0,1-1.173-5.049,10.642,10.642,0,0,1,1.156-5.066,8.035,8.035,0,0,1,3.23-3.332,9.541,9.541,0,0,1,4.726-1.156,9.07,9.07,0,0,1,4.641,1.156,7.989,7.989,0,0,1,3.06,3.111A8.873,8.873,0,0,1,141.542-10.234Zm-2.414-.068a6.6,6.6,0,0,0-.833-3.536,5.622,5.622,0,0,0-2.363-2.21,7.2,7.2,0,0,0-3.264-.748,6.484,6.484,0,0,0-4.522,1.7,6.79,6.79,0,0,0-2.074,4.794ZM155.924,0l-7.65-8.33V0h-2.38V-25.16h2.38v14.892l7.48-8.3h3.332L150.28-9.316,159.154,0ZM178.3-18.564V0h-2.38V-3.264A5.7,5.7,0,0,1,173.4-.612a7.884,7.884,0,0,1-3.808.918,7.462,7.462,0,0,1-5.44-2.057,7.965,7.965,0,0,1-2.108-5.967V-18.564h2.346V-7.99A6.475,6.475,0,0,0,165.9-3.366a5.416,5.416,0,0,0,4.131,1.6,5.6,5.6,0,0,0,4.284-1.7,7.043,7.043,0,0,0,1.6-5v-10.1Zm8.534,2.006V-5.032a3.3,3.3,0,0,0,.646,2.346,3.181,3.181,0,0,0,2.278.646h2.176V0h-2.55a5.23,5.23,0,0,1-3.74-1.173,5.167,5.167,0,0,1-1.224-3.859V-16.558h-2.584v-2.006h2.584v-4.658h2.414v4.658h5.1v2.006ZM203.966.272A9.457,9.457,0,0,1,199.257-.9a8.478,8.478,0,0,1-3.3-3.332,10.178,10.178,0,0,1-1.207-5.049,10.065,10.065,0,0,1,1.224-5.049,8.561,8.561,0,0,1,3.332-3.332,9.553,9.553,0,0,1,4.726-1.173,9.649,9.649,0,0,1,4.743,1.173,8.414,8.414,0,0,1,3.332,3.332,10.178,10.178,0,0,1,1.207,5.049,10.089,10.089,0,0,1-1.224,5.032A8.468,8.468,0,0,1,208.726-.9,9.745,9.745,0,0,1,203.966.272Zm0-2.074a7.12,7.12,0,0,0,3.4-.833A6.358,6.358,0,0,0,209.9-5.151a8.161,8.161,0,0,0,.969-4.131,8.279,8.279,0,0,0-.952-4.131,6.249,6.249,0,0,0-2.516-2.516,7.12,7.12,0,0,0-3.4-.833,7.121,7.121,0,0,0-3.4.833,6.143,6.143,0,0,0-2.5,2.516,8.4,8.4,0,0,0-.935,4.131,8.4,8.4,0,0,0,.935,4.131,6.174,6.174,0,0,0,2.482,2.516A7.022,7.022,0,0,0,203.966-1.8Z" transform="translate(-2.856 28.526)" fill="#f89f26"/>
</svg>
